<svg width="100%" height="auto" viewBox="0 0 584 95" preserveAspectRatio="xMinYMid meet" fill="none" xmlns="http://www.w3.org/2000/svg">
<path d="M53.0557 90.0752C54.0195 90.0752 54.7305 89.8018 55.1816 89.2412C55.6328 88.6807 55.8584 87.8604 55.8584 86.7666V80.0537H54.6416V86.7324C54.6416 88.1816 54.0947 88.9062 53.0146 88.9062C52.6797 88.9062 52.3447 88.8174 52.0166 88.6328C51.6816 88.4482 51.3877 88.209 51.1279 87.9082L50.4443 88.8037C50.7725 89.2139 51.1689 89.5283 51.6475 89.7471C52.1191 89.9658 52.5908 90.0752 53.0557 90.0752ZM63.3301 83.1846V84.1963H63.3027C63.0156 83.8408 62.6738 83.5742 62.2705 83.3828C61.8672 83.1982 61.4297 83.1025 60.9648 83.1025C60.3291 83.1025 59.7549 83.2598 59.249 83.5674C58.7363 83.875 58.3398 84.2988 58.0527 84.832C57.7656 85.3721 57.6289 85.9736 57.6289 86.6367C57.6289 87.1494 57.7109 87.6211 57.8887 88.0518C58.0596 88.4893 58.292 88.8516 58.5928 89.1455C58.8936 89.4463 59.249 89.6787 59.6592 89.8428C60.0693 90.0068 60.5068 90.0889 60.9717 90.0889C61.4639 90.0889 61.915 89.9863 62.3252 89.7812C62.7354 89.5762 63.0771 89.2891 63.3574 88.9199H63.3779V90H64.4648V83.1846H63.3301ZM61.0811 89.0498C60.3975 89.0498 59.8438 88.8242 59.4199 88.373C58.9961 87.9219 58.7842 87.3408 58.7842 86.6436C58.7842 85.8984 59.0029 85.2969 59.4404 84.832C59.8779 84.374 60.4316 84.1416 61.0947 84.1416C61.4092 84.1416 61.71 84.21 61.9971 84.3398C62.2773 84.4697 62.5166 84.6475 62.7217 84.8662C62.9199 85.0918 63.0771 85.3584 63.1934 85.666C63.3096 85.9736 63.3711 86.3018 63.3711 86.6436C63.3711 86.999 63.3096 87.3271 63.1865 87.6279C63.0635 87.9287 62.8926 88.1885 62.6875 88.3936C62.4756 88.5986 62.2295 88.7627 61.9561 88.8789C61.6758 88.9951 61.3818 89.0498 61.0811 89.0498ZM70.1865 83.1025C69.6738 83.1025 69.2021 83.2119 68.7783 83.4307C68.3477 83.6494 67.9922 83.957 67.7119 84.3604H67.6914V83.1846H66.5566V90H67.6914V86.5957C67.6914 85.8438 67.8828 85.2422 68.2725 84.8047C68.6621 84.3672 69.1816 84.1416 69.8311 84.1416C70.0908 84.1416 70.3164 84.1826 70.5146 84.251C70.7061 84.3262 70.8838 84.4424 71.0342 84.6064C71.1846 84.7705 71.2939 84.9961 71.376 85.2695C71.458 85.5498 71.499 85.8848 71.499 86.2744V90.0068H72.6338V85.96C72.6338 85.0166 72.415 84.2988 71.9775 83.8203C71.54 83.3418 70.9453 83.1025 70.1865 83.1025ZM80.249 90H81.4248V80.3887H80.4541L77.7539 82.3711L78.3281 83.2461L80.249 81.8037V90Z" fill="#5D6D74"/>
<path d="M459.056 90.0752C460.02 90.0752 460.73 89.8018 461.182 89.2412C461.633 88.6807 461.858 87.8604 461.858 86.7666V80.0537H460.642V86.7324C460.642 88.1816 460.095 88.9062 459.015 88.9062C458.68 88.9062 458.345 88.8174 458.017 88.6328C457.682 88.4482 457.388 88.209 457.128 87.9082L456.444 88.8037C456.772 89.2139 457.169 89.5283 457.647 89.7471C458.119 89.9658 458.591 90.0752 459.056 90.0752ZM469.33 83.1846V84.1963H469.303C469.016 83.8408 468.674 83.5742 468.271 83.3828C467.867 83.1982 467.43 83.1025 466.965 83.1025C466.329 83.1025 465.755 83.2598 465.249 83.5674C464.736 83.875 464.34 84.2988 464.053 84.832C463.766 85.3721 463.629 85.9736 463.629 86.6367C463.629 87.1494 463.711 87.6211 463.889 88.0518C464.06 88.4893 464.292 88.8516 464.593 89.1455C464.894 89.4463 465.249 89.6787 465.659 89.8428C466.069 90.0068 466.507 90.0889 466.972 90.0889C467.464 90.0889 467.915 89.9863 468.325 89.7812C468.735 89.5762 469.077 89.2891 469.357 88.9199H469.378V90H470.465V83.1846H469.33ZM467.081 89.0498C466.397 89.0498 465.844 88.8242 465.42 88.373C464.996 87.9219 464.784 87.3408 464.784 86.6436C464.784 85.8984 465.003 85.2969 465.44 84.832C465.878 84.374 466.432 84.1416 467.095 84.1416C467.409 84.1416 467.71 84.21 467.997 84.3398C468.277 84.4697 468.517 84.6475 468.722 84.8662C468.92 85.0918 469.077 85.3584 469.193 85.666C469.31 85.9736 469.371 86.3018 469.371 86.6436C469.371 86.999 469.31 87.3271 469.187 87.6279C469.063 87.9287 468.893 88.1885 468.688 88.3936C468.476 88.5986 468.229 88.7627 467.956 88.8789C467.676 88.9951 467.382 89.0498 467.081 89.0498ZM476.187 83.1025C475.674 83.1025 475.202 83.2119 474.778 83.4307C474.348 83.6494 473.992 83.957 473.712 84.3604H473.691V83.1846H472.557V90H473.691V86.5957C473.691 85.8438 473.883 85.2422 474.272 84.8047C474.662 84.3672 475.182 84.1416 475.831 84.1416C476.091 84.1416 476.316 84.1826 476.515 84.251C476.706 84.3262 476.884 84.4424 477.034 84.6064C477.185 84.7705 477.294 84.9961 477.376 85.2695C477.458 85.5498 477.499 85.8848 477.499 86.2744V90.0068H478.634V85.96C478.634 85.0166 478.415 84.2988 477.978 83.8203C477.54 83.3418 476.945 83.1025 476.187 83.1025ZM487.931 83.9365C487.63 83.9365 487.336 83.9707 487.049 84.0391C486.762 84.1074 486.495 84.21 486.249 84.333C486.003 84.4629 485.777 84.6133 485.579 84.791L485.565 84.7842C485.668 84.374 485.818 83.9912 486.01 83.6357C486.201 83.2803 486.42 82.9658 486.666 82.6924C486.912 82.4189 487.186 82.1797 487.486 81.9609C487.787 81.7422 488.102 81.5645 488.43 81.4209C488.758 81.2773 489.1 81.1611 489.462 81.0654L489.106 80.0605C488.594 80.1562 488.102 80.3203 487.623 80.5596C487.145 80.7988 486.7 81.1064 486.29 81.4893C485.88 81.8721 485.518 82.3027 485.21 82.7812C484.896 83.2666 484.656 83.8203 484.479 84.4355C484.301 85.0508 484.219 85.7002 484.219 86.3701C484.219 86.917 484.301 87.4229 484.479 87.8877C484.649 88.3525 484.889 88.749 485.189 89.0703C485.49 89.3916 485.853 89.6445 486.27 89.8223C486.687 90 487.131 90.0889 487.609 90.0889C488.231 90.0889 488.799 89.959 489.305 89.6855C489.811 89.4189 490.214 89.0498 490.501 88.5713C490.788 88.0996 490.932 87.5732 490.932 86.9854C490.932 86.3633 490.802 85.8164 490.542 85.3516C490.282 84.8867 489.927 84.5381 489.476 84.2988C489.024 84.0596 488.505 83.9365 487.931 83.9365ZM487.596 88.9814C486.939 88.9814 486.406 88.749 485.989 88.2842C485.572 87.8193 485.367 87.2041 485.367 86.4453V86.3496C485.6 85.9736 485.921 85.6592 486.317 85.4062C486.714 85.1533 487.165 85.0234 487.671 85.0234C488.3 85.0234 488.806 85.208 489.188 85.5635C489.564 85.9189 489.756 86.3906 489.756 86.9785C489.756 87.5391 489.551 88.0107 489.147 88.4004C488.737 88.79 488.225 88.9814 487.596 88.9814Z" fill="#5D6D74"/>
<path d="M378.056 90.0752C379.02 90.0752 379.73 89.8018 380.182 89.2412C380.633 88.6807 380.858 87.8604 380.858 86.7666V80.0537H379.642V86.7324C379.642 88.1816 379.095 88.9062 378.015 88.9062C377.68 88.9062 377.345 88.8174 377.017 88.6328C376.682 88.4482 376.388 88.209 376.128 87.9082L375.444 88.8037C375.772 89.2139 376.169 89.5283 376.647 89.7471C377.119 89.9658 377.591 90.0752 378.056 90.0752ZM388.33 83.1846V84.1963H388.303C388.016 83.8408 387.674 83.5742 387.271 83.3828C386.867 83.1982 386.43 83.1025 385.965 83.1025C385.329 83.1025 384.755 83.2598 384.249 83.5674C383.736 83.875 383.34 84.2988 383.053 84.832C382.766 85.3721 382.629 85.9736 382.629 86.6367C382.629 87.1494 382.711 87.6211 382.889 88.0518C383.06 88.4893 383.292 88.8516 383.593 89.1455C383.894 89.4463 384.249 89.6787 384.659 89.8428C385.069 90.0068 385.507 90.0889 385.972 90.0889C386.464 90.0889 386.915 89.9863 387.325 89.7812C387.735 89.5762 388.077 89.2891 388.357 88.9199H388.378V90H389.465V83.1846H388.33ZM386.081 89.0498C385.397 89.0498 384.844 88.8242 384.42 88.373C383.996 87.9219 383.784 87.3408 383.784 86.6436C383.784 85.8984 384.003 85.2969 384.44 84.832C384.878 84.374 385.432 84.1416 386.095 84.1416C386.409 84.1416 386.71 84.21 386.997 84.3398C387.277 84.4697 387.517 84.6475 387.722 84.8662C387.92 85.0918 388.077 85.3584 388.193 85.666C388.31 85.9736 388.371 86.3018 388.371 86.6436C388.371 86.999 388.31 87.3271 388.187 87.6279C388.063 87.9287 387.893 88.1885 387.688 88.3936C387.476 88.5986 387.229 88.7627 386.956 88.8789C386.676 88.9951 386.382 89.0498 386.081 89.0498ZM395.187 83.1025C394.674 83.1025 394.202 83.2119 393.778 83.4307C393.348 83.6494 392.992 83.957 392.712 84.3604H392.691V83.1846H391.557V90H392.691V86.5957C392.691 85.8438 392.883 85.2422 393.272 84.8047C393.662 84.3672 394.182 84.1416 394.831 84.1416C395.091 84.1416 395.316 84.1826 395.515 84.251C395.706 84.3262 395.884 84.4424 396.034 84.6064C396.185 84.7705 396.294 84.9961 396.376 85.2695C396.458 85.5498 396.499 85.8848 396.499 86.2744V90.0068H397.634V85.96C397.634 85.0166 397.415 84.2988 396.978 83.8203C396.54 83.3418 395.945 83.1025 395.187 83.1025ZM406.445 83.8955C406.008 83.8955 405.522 83.9912 404.989 84.1689L405.14 81.4688H409.111V80.3887H404.032L403.752 85.249L404.436 85.4609C404.846 85.1123 405.413 84.9346 406.131 84.9346C406.425 84.9346 406.705 84.9824 406.972 85.0713C407.238 85.1602 407.478 85.29 407.683 85.4541C407.888 85.6182 408.052 85.8301 408.175 86.0898C408.298 86.3496 408.359 86.6367 408.359 86.9512C408.359 87.334 408.257 87.6826 408.059 87.9971C407.854 88.3115 407.587 88.5576 407.245 88.7354C406.903 88.9131 406.527 88.9951 406.117 88.9951C405.632 88.9951 405.194 88.8926 404.805 88.6807C404.415 88.4688 404.107 88.1816 403.889 87.8193L403.014 88.4893C403.342 88.9951 403.793 89.3848 404.36 89.6719C404.921 89.959 405.536 90.0957 406.206 90.0957C406.821 90.0957 407.389 89.9658 407.895 89.7061C408.4 89.4463 408.804 89.0703 409.104 88.5918C409.398 88.1133 409.549 87.5732 409.549 86.9648C409.549 86.6504 409.508 86.3564 409.433 86.0693C409.357 85.7891 409.255 85.5361 409.118 85.3105C408.981 85.0918 408.824 84.8867 408.633 84.709C408.441 84.5312 408.236 84.3809 408.004 84.2578C407.771 84.1416 407.525 84.0527 407.266 83.9912C406.999 83.9297 406.726 83.8955 406.445 83.8955Z" fill="#5D6D74"/>
<path d="M296.056 90.0752C297.02 90.0752 297.73 89.8018 298.182 89.2412C298.633 88.6807 298.858 87.8604 298.858 86.7666V80.0537H297.642V86.7324C297.642 88.1816 297.095 88.9062 296.015 88.9062C295.68 88.9062 295.345 88.8174 295.017 88.6328C294.682 88.4482 294.388 88.209 294.128 87.9082L293.444 88.8037C293.772 89.2139 294.169 89.5283 294.647 89.7471C295.119 89.9658 295.591 90.0752 296.056 90.0752ZM306.33 83.1846V84.1963H306.303C306.016 83.8408 305.674 83.5742 305.271 83.3828C304.867 83.1982 304.43 83.1025 303.965 83.1025C303.329 83.1025 302.755 83.2598 302.249 83.5674C301.736 83.875 301.34 84.2988 301.053 84.832C300.766 85.3721 300.629 85.9736 300.629 86.6367C300.629 87.1494 300.711 87.6211 300.889 88.0518C301.06 88.4893 301.292 88.8516 301.593 89.1455C301.894 89.4463 302.249 89.6787 302.659 89.8428C303.069 90.0068 303.507 90.0889 303.972 90.0889C304.464 90.0889 304.915 89.9863 305.325 89.7812C305.735 89.5762 306.077 89.2891 306.357 88.9199H306.378V90H307.465V83.1846H306.33ZM304.081 89.0498C303.397 89.0498 302.844 88.8242 302.42 88.373C301.996 87.9219 301.784 87.3408 301.784 86.6436C301.784 85.8984 302.003 85.2969 302.44 84.832C302.878 84.374 303.432 84.1416 304.095 84.1416C304.409 84.1416 304.71 84.21 304.997 84.3398C305.277 84.4697 305.517 84.6475 305.722 84.8662C305.92 85.0918 306.077 85.3584 306.193 85.666C306.31 85.9736 306.371 86.3018 306.371 86.6436C306.371 86.999 306.31 87.3271 306.187 87.6279C306.063 87.9287 305.893 88.1885 305.688 88.3936C305.476 88.5986 305.229 88.7627 304.956 88.8789C304.676 88.9951 304.382 89.0498 304.081 89.0498ZM313.187 83.1025C312.674 83.1025 312.202 83.2119 311.778 83.4307C311.348 83.6494 310.992 83.957 310.712 84.3604H310.691V83.1846H309.557V90H310.691V86.5957C310.691 85.8438 310.883 85.2422 311.272 84.8047C311.662 84.3672 312.182 84.1416 312.831 84.1416C313.091 84.1416 313.316 84.1826 313.515 84.251C313.706 84.3262 313.884 84.4424 314.034 84.6064C314.185 84.7705 314.294 84.9961 314.376 85.2695C314.458 85.5498 314.499 85.8848 314.499 86.2744V90.0068H315.634V85.96C315.634 85.0166 315.415 84.2988 314.978 83.8203C314.54 83.3418 313.945 83.1025 313.187 83.1025ZM325.354 90H326.53V88.3047H327.932V87.2383H326.53V80.3887H325.532L320.884 87.4639V88.3047H325.354V90ZM322.306 87.2656L325.375 82.5283V87.2656H322.306Z" fill="#5D6D74"/>
<path d="M214.056 90.0752C215.02 90.0752 215.73 89.8018 216.182 89.2412C216.633 88.6807 216.858 87.8604 216.858 86.7666V80.0537H215.642V86.7324C215.642 88.1816 215.095 88.9062 214.015 88.9062C213.68 88.9062 213.345 88.8174 213.017 88.6328C212.682 88.4482 212.388 88.209 212.128 87.9082L211.444 88.8037C211.772 89.2139 212.169 89.5283 212.647 89.7471C213.119 89.9658 213.591 90.0752 214.056 90.0752ZM224.33 83.1846V84.1963H224.303C224.016 83.8408 223.674 83.5742 223.271 83.3828C222.867 83.1982 222.43 83.1025 221.965 83.1025C221.329 83.1025 220.755 83.2598 220.249 83.5674C219.736 83.875 219.34 84.2988 219.053 84.832C218.766 85.3721 218.629 85.9736 218.629 86.6367C218.629 87.1494 218.711 87.6211 218.889 88.0518C219.06 88.4893 219.292 88.8516 219.593 89.1455C219.894 89.4463 220.249 89.6787 220.659 89.8428C221.069 90.0068 221.507 90.0889 221.972 90.0889C222.464 90.0889 222.915 89.9863 223.325 89.7812C223.735 89.5762 224.077 89.2891 224.357 88.9199H224.378V90H225.465V83.1846H224.33ZM222.081 89.0498C221.397 89.0498 220.844 88.8242 220.42 88.373C219.996 87.9219 219.784 87.3408 219.784 86.6436C219.784 85.8984 220.003 85.2969 220.44 84.832C220.878 84.374 221.432 84.1416 222.095 84.1416C222.409 84.1416 222.71 84.21 222.997 84.3398C223.277 84.4697 223.517 84.6475 223.722 84.8662C223.92 85.0918 224.077 85.3584 224.193 85.666C224.31 85.9736 224.371 86.3018 224.371 86.6436C224.371 86.999 224.31 87.3271 224.187 87.6279C224.063 87.9287 223.893 88.1885 223.688 88.3936C223.476 88.5986 223.229 88.7627 222.956 88.8789C222.676 88.9951 222.382 89.0498 222.081 89.0498ZM231.187 83.1025C230.674 83.1025 230.202 83.2119 229.778 83.4307C229.348 83.6494 228.992 83.957 228.712 84.3604H228.691V83.1846H227.557V90H228.691V86.5957C228.691 85.8438 228.883 85.2422 229.272 84.8047C229.662 84.3672 230.182 84.1416 230.831 84.1416C231.091 84.1416 231.316 84.1826 231.515 84.251C231.706 84.3262 231.884 84.4424 232.034 84.6064C232.185 84.7705 232.294 84.9961 232.376 85.2695C232.458 85.5498 232.499 85.8848 232.499 86.2744V90.0068H233.634V85.96C233.634 85.0166 233.415 84.2988 232.978 83.8203C232.54 83.3418 231.945 83.1025 231.187 83.1025ZM243.607 85.0098V84.9961C244.045 84.791 244.38 84.4902 244.626 84.1074C244.872 83.7246 244.995 83.2939 244.995 82.8154C244.995 82.2959 244.858 81.8447 244.592 81.4619C244.325 81.0791 243.97 80.7852 243.525 80.5938C243.081 80.4023 242.582 80.2998 242.035 80.2998C241.365 80.2998 240.791 80.4434 240.299 80.7168C239.807 80.9902 239.431 81.3594 239.178 81.8242L240.128 82.3438C240.559 81.7148 241.188 81.4004 242.015 81.4004C242.521 81.4004 242.951 81.5508 243.293 81.8379C243.635 82.1318 243.812 82.5078 243.812 82.9727C243.812 83.1846 243.778 83.3828 243.71 83.5605C243.642 83.7383 243.539 83.9023 243.402 84.0459C243.266 84.1895 243.088 84.2988 242.862 84.3809C242.63 84.4629 242.37 84.5039 242.076 84.5039H241.14V85.5293H241.939C242.281 85.5293 242.596 85.5771 242.869 85.666C243.143 85.7617 243.361 85.8848 243.532 86.042C243.696 86.2061 243.826 86.3838 243.915 86.5889C244.004 86.7939 244.052 87.0127 244.052 87.2451C244.052 87.5869 243.963 87.8945 243.785 88.1611C243.607 88.4277 243.368 88.6328 243.067 88.7695C242.767 88.9131 242.432 88.9814 242.069 88.9814C241.7 88.9814 241.365 88.9336 241.071 88.8242C240.777 88.7217 240.531 88.5781 240.34 88.3867C240.142 88.2021 239.984 87.9766 239.868 87.71L238.85 88.1748C239.096 88.749 239.506 89.2139 240.08 89.5625C240.654 89.918 241.345 90.0889 242.138 90.0889C242.726 90.0889 243.252 89.9795 243.724 89.7607C244.195 89.542 244.564 89.2275 244.838 88.8174C245.111 88.4072 245.248 87.9424 245.248 87.4229C245.248 86.8623 245.098 86.3701 244.811 85.9463C244.517 85.5293 244.113 85.2148 243.607 85.0098Z" fill="#5D6D74"/>
<path d="M133.056 90.0752C134.02 90.0752 134.73 89.8018 135.182 89.2412C135.633 88.6807 135.858 87.8604 135.858 86.7666V80.0537H134.642V86.7324C134.642 88.1816 134.095 88.9062 133.015 88.9062C132.68 88.9062 132.345 88.8174 132.017 88.6328C131.682 88.4482 131.388 88.209 131.128 87.9082L130.444 88.8037C130.772 89.2139 131.169 89.5283 131.647 89.7471C132.119 89.9658 132.591 90.0752 133.056 90.0752ZM143.33 83.1846V84.1963H143.303C143.016 83.8408 142.674 83.5742 142.271 83.3828C141.867 83.1982 141.43 83.1025 140.965 83.1025C140.329 83.1025 139.755 83.2598 139.249 83.5674C138.736 83.875 138.34 84.2988 138.053 84.832C137.766 85.3721 137.629 85.9736 137.629 86.6367C137.629 87.1494 137.711 87.6211 137.889 88.0518C138.06 88.4893 138.292 88.8516 138.593 89.1455C138.894 89.4463 139.249 89.6787 139.659 89.8428C140.069 90.0068 140.507 90.0889 140.972 90.0889C141.464 90.0889 141.915 89.9863 142.325 89.7812C142.735 89.5762 143.077 89.2891 143.357 88.9199H143.378V90H144.465V83.1846H143.33ZM141.081 89.0498C140.397 89.0498 139.844 88.8242 139.42 88.373C138.996 87.9219 138.784 87.3408 138.784 86.6436C138.784 85.8984 139.003 85.2969 139.44 84.832C139.878 84.374 140.432 84.1416 141.095 84.1416C141.409 84.1416 141.71 84.21 141.997 84.3398C142.277 84.4697 142.517 84.6475 142.722 84.8662C142.92 85.0918 143.077 85.3584 143.193 85.666C143.31 85.9736 143.371 86.3018 143.371 86.6436C143.371 86.999 143.31 87.3271 143.187 87.6279C143.063 87.9287 142.893 88.1885 142.688 88.3936C142.476 88.5986 142.229 88.7627 141.956 88.8789C141.676 88.9951 141.382 89.0498 141.081 89.0498ZM150.187 83.1025C149.674 83.1025 149.202 83.2119 148.778 83.4307C148.348 83.6494 147.992 83.957 147.712 84.3604H147.691V83.1846H146.557V90H147.691V86.5957C147.691 85.8438 147.883 85.2422 148.272 84.8047C148.662 84.3672 149.182 84.1416 149.831 84.1416C150.091 84.1416 150.316 84.1826 150.515 84.251C150.706 84.3262 150.884 84.4424 151.034 84.6064C151.185 84.7705 151.294 84.9961 151.376 85.2695C151.458 85.5498 151.499 85.8848 151.499 86.2744V90.0068H152.634V85.96C152.634 85.0166 152.415 84.2988 151.978 83.8203C151.54 83.3418 150.945 83.1025 150.187 83.1025ZM159.798 88.9199V88.8994L162.3 86.3633C162.888 85.7686 163.305 85.2217 163.558 84.7158C163.811 84.21 163.94 83.6836 163.94 83.1299C163.94 82.6992 163.858 82.3027 163.694 81.9404C163.53 81.585 163.318 81.2842 163.052 81.0449C162.778 80.8125 162.471 80.6279 162.122 80.498C161.767 80.3682 161.404 80.2998 161.021 80.2998C160.529 80.2998 160.085 80.3818 159.688 80.5391C159.292 80.7031 158.957 80.915 158.69 81.1816C158.424 81.4482 158.198 81.7627 158.014 82.125L158.882 82.7197C159.333 81.8447 160.023 81.4004 160.946 81.4004C161.473 81.4004 161.903 81.5781 162.245 81.9268C162.587 82.2754 162.758 82.7129 162.758 83.2461C162.758 83.4785 162.717 83.7109 162.648 83.9297C162.573 84.1484 162.464 84.374 162.32 84.5928C162.17 84.8115 162.02 85.0166 161.869 85.1943C161.712 85.3789 161.521 85.5908 161.288 85.8301L158 89.1865L158.014 90H164.063V88.9199H159.798Z" fill="#5D6D74"/>
<path d="M542.056 90.0752C543.02 90.0752 543.73 89.8018 544.182 89.2412C544.633 88.6807 544.858 87.8604 544.858 86.7666V80.0537H543.642V86.7324C543.642 88.1816 543.095 88.9062 542.015 88.9062C541.68 88.9062 541.345 88.8174 541.017 88.6328C540.682 88.4482 540.388 88.209 540.128 87.9082L539.444 88.8037C539.772 89.2139 540.169 89.5283 540.647 89.7471C541.119 89.9658 541.591 90.0752 542.056 90.0752ZM552.33 83.1846V84.1963H552.303C552.016 83.8408 551.674 83.5742 551.271 83.3828C550.867 83.1982 550.43 83.1025 549.965 83.1025C549.329 83.1025 548.755 83.2598 548.249 83.5674C547.736 83.875 547.34 84.2988 547.053 84.832C546.766 85.3721 546.629 85.9736 546.629 86.6367C546.629 87.1494 546.711 87.6211 546.889 88.0518C547.06 88.4893 547.292 88.8516 547.593 89.1455C547.894 89.4463 548.249 89.6787 548.659 89.8428C549.069 90.0068 549.507 90.0889 549.972 90.0889C550.464 90.0889 550.915 89.9863 551.325 89.7812C551.735 89.5762 552.077 89.2891 552.357 88.9199H552.378V90H553.465V83.1846H552.33ZM550.081 89.0498C549.397 89.0498 548.844 88.8242 548.42 88.373C547.996 87.9219 547.784 87.3408 547.784 86.6436C547.784 85.8984 548.003 85.2969 548.44 84.832C548.878 84.374 549.432 84.1416 550.095 84.1416C550.409 84.1416 550.71 84.21 550.997 84.3398C551.277 84.4697 551.517 84.6475 551.722 84.8662C551.92 85.0918 552.077 85.3584 552.193 85.666C552.31 85.9736 552.371 86.3018 552.371 86.6436C552.371 86.999 552.31 87.3271 552.187 87.6279C552.063 87.9287 551.893 88.1885 551.688 88.3936C551.476 88.5986 551.229 88.7627 550.956 88.8789C550.676 88.9951 550.382 89.0498 550.081 89.0498ZM559.187 83.1025C558.674 83.1025 558.202 83.2119 557.778 83.4307C557.348 83.6494 556.992 83.957 556.712 84.3604H556.691V83.1846H555.557V90H556.691V86.5957C556.691 85.8438 556.883 85.2422 557.272 84.8047C557.662 84.3672 558.182 84.1416 558.831 84.1416C559.091 84.1416 559.316 84.1826 559.515 84.251C559.706 84.3262 559.884 84.4424 560.034 84.6064C560.185 84.7705 560.294 84.9961 560.376 85.2695C560.458 85.5498 560.499 85.8848 560.499 86.2744V90.0068H561.634V85.96C561.634 85.0166 561.415 84.2988 560.978 83.8203C560.54 83.3418 559.945 83.1025 559.187 83.1025ZM566.836 80.3887V81.4688H571.478L567.8 89.9316L568.976 90.1641L572.783 81.2021V80.3887H566.836Z" fill="#5D6D74"/>
<path d="M12.5645 78H14.0752V69.0752H12.8501L10.2285 70.9668L10.9521 72.084L12.5645 70.8779V78ZM19.2993 78.1016C20.0039 78.1016 20.6196 77.9111 21.1401 77.5239C21.6606 77.1431 22.0605 76.6035 22.3271 75.918C22.5938 75.2324 22.7334 74.439 22.7334 73.5376C22.7334 72.8267 22.6445 72.1792 22.4795 71.6016C22.3081 71.0303 22.0732 70.5479 21.7686 70.167C21.4639 69.7861 21.1021 69.4878 20.6831 69.2847C20.2642 69.0815 19.8008 68.9736 19.2993 68.9736C18.5947 68.9736 17.9854 69.1704 17.4648 69.5513C16.9443 69.9385 16.5444 70.478 16.2778 71.1636C16.0049 71.8491 15.8716 72.6426 15.8716 73.5376C15.8716 74.2485 15.9541 74.896 16.1255 75.4736C16.2905 76.0513 16.5254 76.5337 16.8301 76.9146C17.1348 77.2954 17.4966 77.5938 17.9155 77.7969C18.3345 78 18.7915 78.1016 19.2993 78.1016ZM19.3057 76.7051C18.7217 76.7051 18.2583 76.4258 17.9155 75.8608C17.5728 75.2959 17.4014 74.5215 17.4014 73.5376C17.4014 72.5474 17.5664 71.7666 17.9092 71.208C18.2456 70.6494 18.709 70.3701 19.3057 70.3701C19.8896 70.3701 20.3467 70.6494 20.6895 71.208C21.0322 71.7666 21.2036 72.5474 21.2036 73.5376C21.2036 74.5342 21.0322 75.3086 20.7021 75.8672C20.3657 76.4258 19.9023 76.7051 19.3057 76.7051ZM27.5259 78.1016C28.2305 78.1016 28.8462 77.9111 29.3667 77.5239C29.8872 77.1431 30.2871 76.6035 30.5537 75.918C30.8203 75.2324 30.96 74.439 30.96 73.5376C30.96 72.8267 30.8711 72.1792 30.7061 71.6016C30.5347 71.0303 30.2998 70.5479 29.9951 70.167C29.6904 69.7861 29.3286 69.4878 28.9097 69.2847C28.4907 69.0815 28.0273 68.9736 27.5259 68.9736C26.8213 68.9736 26.2119 69.1704 25.6914 69.5513C25.1709 69.9385 24.771 70.478 24.5044 71.1636C24.2314 71.8491 24.0981 72.6426 24.0981 73.5376C24.0981 74.2485 24.1807 74.896 24.3521 75.4736C24.5171 76.0513 24.752 76.5337 25.0566 76.9146C25.3613 77.2954 25.7231 77.5938 26.1421 77.7969C26.561 78 27.0181 78.1016 27.5259 78.1016ZM27.5322 76.7051C26.9482 76.7051 26.4849 76.4258 26.1421 75.8608C25.7993 75.2959 25.6279 74.5215 25.6279 73.5376C25.6279 72.5474 25.793 71.7666 26.1357 71.208C26.4722 70.6494 26.9355 70.3701 27.5322 70.3701C28.1162 70.3701 28.5732 70.6494 28.916 71.208C29.2588 71.7666 29.4302 72.5474 29.4302 73.5376C29.4302 74.5342 29.2588 75.3086 28.9287 75.8672C28.5923 76.4258 28.1289 76.7051 27.5322 76.7051Z" fill="#5D6D74"/>
<path d="M12.8467 39.2681C12.5166 39.2681 12.1294 39.3315 11.6914 39.4585L11.8057 37.4526H15.2271V36.0752H10.3965L10.1299 40.7534L10.9487 41.0391C11.3296 40.728 11.8184 40.5693 12.4023 40.5693C12.6182 40.5693 12.8276 40.6074 13.0308 40.6772C13.2339 40.7471 13.4243 40.8423 13.5894 40.9692C13.7544 41.0962 13.8813 41.2549 13.9829 41.458C14.0845 41.6611 14.1353 41.877 14.1353 42.1182C14.1353 42.5815 13.9766 42.9624 13.6592 43.2607C13.3418 43.5654 12.9165 43.7114 12.3833 43.7114C11.9897 43.7114 11.6406 43.6289 11.3296 43.4639C11.0122 43.2988 10.7583 43.0767 10.5615 42.7847L9.46973 43.6606C9.8125 44.1304 10.2505 44.4858 10.7837 44.7334C11.3169 44.9873 11.8882 45.1079 12.5103 45.1079C13.1323 45.1079 13.6782 44.9873 14.1606 44.7334C14.6431 44.4858 15.0112 44.1367 15.2715 43.686C15.5317 43.2417 15.665 42.7275 15.665 42.1436C15.665 41.7119 15.5889 41.312 15.4429 40.9438C15.2905 40.5757 15.0874 40.271 14.8335 40.0298C14.5796 39.7886 14.2812 39.6045 13.9385 39.4712C13.5957 39.3379 13.2275 39.2681 12.8467 39.2681ZM20.3179 45.1016C21.0225 45.1016 21.6382 44.9111 22.1587 44.5239C22.6792 44.1431 23.0791 43.6035 23.3457 42.918C23.6123 42.2324 23.752 41.439 23.752 40.5376C23.752 39.8267 23.6631 39.1792 23.498 38.6016C23.3267 38.0303 23.0918 37.5479 22.7871 37.167C22.4824 36.7861 22.1206 36.4878 21.7017 36.2847C21.2827 36.0815 20.8193 35.9736 20.3179 35.9736C19.6133 35.9736 19.0039 36.1704 18.4834 36.5513C17.9629 36.9385 17.563 37.478 17.2964 38.1636C17.0234 38.8491 16.8901 39.6426 16.8901 40.5376C16.8901 41.2485 16.9727 41.896 17.144 42.4736C17.3091 43.0513 17.5439 43.5337 17.8486 43.9146C18.1533 44.2954 18.5151 44.5938 18.9341 44.7969C19.353 45 19.8101 45.1016 20.3179 45.1016ZM20.3242 43.7051C19.7402 43.7051 19.2769 43.4258 18.9341 42.8608C18.5913 42.2959 18.4199 41.5215 18.4199 40.5376C18.4199 39.5474 18.585 38.7666 18.9277 38.208C19.2642 37.6494 19.7275 37.3701 20.3242 37.3701C20.9082 37.3701 21.3652 37.6494 21.708 38.208C22.0508 38.7666 22.2222 39.5474 22.2222 40.5376C22.2222 41.5342 22.0508 42.3086 21.7207 42.8672C21.3843 43.4258 20.9209 43.7051 20.3242 43.7051ZM28.5444 45.1016C29.249 45.1016 29.8647 44.9111 30.3853 44.5239C30.9058 44.1431 31.3057 43.6035 31.5723 42.918C31.8389 42.2324 31.9785 41.439 31.9785 40.5376C31.9785 39.8267 31.8896 39.1792 31.7246 38.6016C31.5532 38.0303 31.3184 37.5479 31.0137 37.167C30.709 36.7861 30.3472 36.4878 29.9282 36.2847C29.5093 36.0815 29.0459 35.9736 28.5444 35.9736C27.8398 35.9736 27.2305 36.1704 26.71 36.5513C26.1895 36.9385 25.7896 37.478 25.5229 38.1636C25.25 38.8491 25.1167 39.6426 25.1167 40.5376C25.1167 41.2485 25.1992 41.896 25.3706 42.4736C25.5356 43.0513 25.7705 43.5337 26.0752 43.9146C26.3799 44.2954 26.7417 44.5938 27.1606 44.7969C27.5796 45 28.0366 45.1016 28.5444 45.1016ZM28.5508 43.7051C27.9668 43.7051 27.5034 43.4258 27.1606 42.8608C26.8179 42.2959 26.6465 41.5215 26.6465 40.5376C26.6465 39.5474 26.8115 38.7666 27.1543 38.208C27.4907 37.6494 27.9541 37.3701 28.5508 37.3701C29.1348 37.3701 29.5918 37.6494 29.9346 38.208C30.2773 38.7666 30.4487 39.5474 30.4487 40.5376C30.4487 41.5342 30.2773 42.3086 29.9473 42.8672C29.6108 43.4258 29.1475 43.7051 28.5508 43.7051Z" fill="#5D6D74"/>
<path d="M2.56445 12H4.0752V3.0752H2.8501L0.228516 4.9668L0.952148 6.08398L2.56445 4.87793V12ZM9.29932 12.1016C10.0039 12.1016 10.6196 11.9111 11.1401 11.5239C11.6606 11.1431 12.0605 10.6035 12.3271 9.91797C12.5938 9.23242 12.7334 8.43896 12.7334 7.5376C12.7334 6.82666 12.6445 6.1792 12.4795 5.60156C12.3081 5.03027 12.0732 4.54785 11.7686 4.16699C11.4639 3.78613 11.1021 3.48779 10.6831 3.28467C10.2642 3.08154 9.80078 2.97363 9.29932 2.97363C8.59473 2.97363 7.98535 3.17041 7.46484 3.55127C6.94434 3.93848 6.54443 4.47803 6.27783 5.16357C6.00488 5.84912 5.87158 6.64258 5.87158 7.5376C5.87158 8.24854 5.9541 8.896 6.12549 9.47363C6.29053 10.0513 6.52539 10.5337 6.83008 10.9146C7.13477 11.2954 7.49658 11.5938 7.91553 11.7969C8.33447 12 8.7915 12.1016 9.29932 12.1016ZM9.30566 10.7051C8.72168 10.7051 8.2583 10.4258 7.91553 9.86084C7.57275 9.2959 7.40137 8.52148 7.40137 7.5376C7.40137 6.54736 7.56641 5.7666 7.90918 5.20801C8.24561 4.64941 8.70898 4.37012 9.30566 4.37012C9.88965 4.37012 10.3467 4.64941 10.6895 5.20801C11.0322 5.7666 11.2036 6.54736 11.2036 7.5376C11.2036 8.53418 11.0322 9.30859 10.7021 9.86719C10.3657 10.4258 9.90234 10.7051 9.30566 10.7051ZM17.5259 12.1016C18.2305 12.1016 18.8462 11.9111 19.3667 11.5239C19.8872 11.1431 20.2871 10.6035 20.5537 9.91797C20.8203 9.23242 20.96 8.43896 20.96 7.5376C20.96 6.82666 20.8711 6.1792 20.7061 5.60156C20.5347 5.03027 20.2998 4.54785 19.9951 4.16699C19.6904 3.78613 19.3286 3.48779 18.9097 3.28467C18.4907 3.08154 18.0273 2.97363 17.5259 2.97363C16.8213 2.97363 16.2119 3.17041 15.6914 3.55127C15.1709 3.93848 14.771 4.47803 14.5044 5.16357C14.2314 5.84912 14.0981 6.64258 14.0981 7.5376C14.0981 8.24854 14.1807 8.896 14.3521 9.47363C14.5171 10.0513 14.752 10.5337 15.0566 10.9146C15.3613 11.2954 15.7231 11.5938 16.1421 11.7969C16.561 12 17.0181 12.1016 17.5259 12.1016ZM17.5322 10.7051C16.9482 10.7051 16.4849 10.4258 16.1421 9.86084C15.7993 9.2959 15.6279 8.52148 15.6279 7.5376C15.6279 6.54736 15.793 5.7666 16.1357 5.20801C16.4722 4.64941 16.9355 4.37012 17.5322 4.37012C18.1162 4.37012 18.5732 4.64941 18.916 5.20801C19.2588 5.7666 19.4302 6.54736 19.4302 7.5376C19.4302 8.53418 19.2588 9.30859 18.9287 9.86719C18.5923 10.4258 18.1289 10.7051 17.5322 10.7051ZM25.7524 12.1016C26.457 12.1016 27.0728 11.9111 27.5933 11.5239C28.1138 11.1431 28.5137 10.6035 28.7803 9.91797C29.0469 9.23242 29.1865 8.43896 29.1865 7.5376C29.1865 6.82666 29.0977 6.1792 28.9326 5.60156C28.7612 5.03027 28.5264 4.54785 28.2217 4.16699C27.917 3.78613 27.5552 3.48779 27.1362 3.28467C26.7173 3.08154 26.2539 2.97363 25.7524 2.97363C25.0479 2.97363 24.4385 3.17041 23.918 3.55127C23.3975 3.93848 22.9976 4.47803 22.731 5.16357C22.458 5.84912 22.3247 6.64258 22.3247 7.5376C22.3247 8.24854 22.4072 8.896 22.5786 9.47363C22.7437 10.0513 22.9785 10.5337 23.2832 10.9146C23.5879 11.2954 23.9497 11.5938 24.3687 11.7969C24.7876 12 25.2446 12.1016 25.7524 12.1016ZM25.7588 10.7051C25.1748 10.7051 24.7114 10.4258 24.3687 9.86084C24.0259 9.2959 23.8545 8.52148 23.8545 7.5376C23.8545 6.54736 24.0195 5.7666 24.3623 5.20801C24.6987 4.64941 25.1621 4.37012 25.7588 4.37012C26.3428 4.37012 26.7998 4.64941 27.1426 5.20801C27.4854 5.7666 27.6567 6.54736 27.6567 7.5376C27.6567 8.53418 27.4854 9.30859 27.1553 9.86719C26.8188 10.4258 26.3555 10.7051 25.7588 10.7051Z" fill="#5D6D74"/>
<path d="M38.584 58.469C38.584 58.469 45.605 62.908 59.626 67.083C73.647 71.258 125.21 55.338 144.599 55.043C163.988 54.748 274.812 23.369 304.818 23.253C334.824 23.137 366.99 45.485 391.531 44.006C416.072 42.527 454.948 9.122 473.119 6.546C491.29 3.97 543.895 49.578 554.829 51.546C565.763 53.514 578.91 46.897 582.852 44.01" stroke="#707070"/>
</svg>
